<svg xmlns="http://www.w3.org/2000/svg" width="24" height="25" fill="none"><path fill="#267CFD" d="m22.952 9.73-1.07-1.071a1.187 1.187 0 0 1-.35-.844V6.299a3.578 3.578 0 0 0-3.575-3.575H16.44a1.2 1.2 0 0 1-.842-.349l-1.072-1.071a3.576 3.576 0 0 0-5.054 0L8.4 2.374a1.2 1.2 0 0 1-.842.35H6.042a3.578 3.578 0 0 0-3.575 3.574v1.516c0 .318-.125.618-.349.843L1.048 9.73A3.552 3.552 0 0 0 0 12.258c0 .955.372 1.852 1.048 2.527l1.07 1.071c.226.226.35.526.35.844v1.516a3.578 3.578 0 0 0 3.575 3.575H7.56c.313 0 .62.127.842.349l1.072 1.073A3.566 3.566 0 0 0 12 24.258c.914 0 1.83-.348 2.527-1.045L15.6 22.14a1.2 1.2 0 0 1 .842-.35h1.516a3.578 3.578 0 0 0 3.575-3.574V16.7c0-.318.124-.618.35-.843l1.07-1.07A3.557 3.557 0 0 0 24 12.257c0-.956-.372-1.853-1.048-2.528Zm-1.684 3.37-1.072 1.072a3.556 3.556 0 0 0-1.048 2.527v1.515c0 .657-.534 1.192-1.191 1.192H16.44a3.55 3.55 0 0 0-2.527 1.048l-1.072 1.071a1.192 1.192 0 0 1-1.684 0l-1.072-1.071a3.55 3.55 0 0 0-2.527-1.048H6.042a1.193 1.193 0 0 1-1.192-1.191v-1.516c0-.954-.37-1.852-1.047-2.529L2.73 13.098a1.177 1.177 0 0 1-.348-.84c0-.318.124-.617.35-.843l1.072-1.073a3.555 3.555 0 0 0 1.047-2.527V6.299c0-.656.534-1.191 1.191-1.191H7.56c.954 0 1.853-.372 2.527-1.048l1.072-1.072a1.193 1.193 0 0 1 1.684 0l1.072 1.072a3.549 3.549 0 0 0 2.527 1.048h1.516c.657 0 1.191.535 1.191 1.191v1.516c0 .954.371 1.852 1.048 2.529l1.072 1.072c.225.225.349.524.349.843 0 .319-.124.615-.35.84Z"/><path fill="#267CFD" d="m16.134 8.859-6.382 4.254-1.704-1.704a1.199 1.199 0 1 0-1.696 1.697l2.4 2.4a1.199 1.199 0 0 0 1.514.15l7.2-4.8a1.199 1.199 0 1 0-1.332-1.997Z"/></svg>