<svg xmlns="http://www.w3.org/2000/svg" width="24" height="25" fill="none"><g fill="#267CFD" clip-path="url(#a)"><path d="M20.556 1.458h-4.007A2.414 2.414 0 0 0 15.66.58a2.47 2.47 0 0 0-1.216-.323H9.556A2.47 2.47 0 0 0 8.34.58c-.37.21-.676.513-.89.877H3.445c-.648 0-1.27.253-1.728.703A2.378 2.378 0 0 0 1 3.858v18c0 .636.258 1.247.716 1.697.458.45 1.08.703 1.728.703h17.112c.648 0 1.27-.253 1.728-.703.459-.45.716-1.06.716-1.697v-18c0-.637-.258-1.247-.716-1.697a2.467 2.467 0 0 0-1.728-.703Zm-6.112 1.2v2.4H9.556v-2.4h4.888Zm6.112 19.2H3.444v-18h3.667v1.2c-.324 0-.635.126-.864.351a1.19 1.19 0 0 0-.358.849c0 .318.129.623.358.848.23.225.54.352.864.352h9.778c.324 0 .635-.127.864-.352.23-.225.358-.53.358-.848a1.19 1.19 0 0 0-.358-.849 1.234 1.234 0 0 0-.864-.351v-1.2h3.667v18Z"/><path d="M10.807 17.573c-.32.002-.627-.12-.855-.34l-2.474-2.357a1.203 1.203 0 0 1-.37-.846 1.184 1.184 0 0 1 .348-.855 1.229 1.229 0 0 1 .862-.364 1.246 1.246 0 0 1 .87.342l1.624 1.547 4.009-3.817a1.223 1.223 0 0 1 .877-.363 1.242 1.242 0 0 1 .875.365 1.197 1.197 0 0 1 .345.87 1.182 1.182 0 0 1-.396.85l-4.858 4.628c-.23.219-.537.34-.857.34Z"/></g><defs><clipPath id="a"><path fill="#fff" d="M0 .258h24v24H0z"/></clipPath></defs></svg>