<svg xmlns="http://www.w3.org/2000/svg" width="45" height="45" fill="none"><mask id="a" width="45" height="45" x="0" y="0" maskUnits="userSpaceOnUse" style="mask-type:luminance"><path fill="#fff" d="M44.66 0H0v45h44.66V0Z"/></mask><g mask="url(#a)"><mask id="b" width="45" height="45" x="0" y="0" maskUnits="userSpaceOnUse" style="mask-type:alpha"><path fill="#D9D9D9" d="M22.33 43.064c11.27 0 20.408-9.206 20.408-20.564S33.601 1.935 22.33 1.935c-11.272 0-20.41 9.207-20.41 20.565s9.138 20.564 20.41 20.564Z"/><path fill="#267CFD" fill-rule="evenodd" d="M0 22.5C0 10.073 9.997 0 22.33 0c12.333 0 22.33 10.073 22.33 22.5 0 12.426-9.997 22.5-22.33 22.5C9.997 45 0 34.926 0 22.5ZM22.33 3.871c-10.21 0-18.488 8.34-18.488 18.629 0 10.289 8.277 18.629 18.488 18.629 10.21 0 18.488-8.34 18.488-18.629 0-10.289-8.277-18.629-18.488-18.629Z" clip-rule="evenodd"/></mask><g fill="#267CFD" fill-rule="evenodd" clip-rule="evenodd" mask="url(#b)"><path d="m3.056 27.687-1.327-1.4C.4 24.89.402 24.89.402 24.889l.002-.002.004-.003.011-.011.037-.035a13.494 13.494 0 0 1 .574-.509c.385-.328.94-.776 1.636-1.276 1.385-.995 3.37-2.225 5.735-3.11 2.364-.885 5.175-1.45 8.163-1.023 3.02.432 6.088 1.858 8.948 4.74 2.386 2.405 4.564 3.582 6.429 4.086a9.023 9.023 0 0 0 4.943-.046c1.431-.414 2.61-1.11 3.44-1.713.411-.3.727-.57.933-.759.103-.094.178-.167.224-.213l.045-.046.004-.004-.002.002-.001.001c0 .001-.001.002 1.404 1.32 1.406 1.32 1.405 1.32 1.404 1.322l-.002.002-.004.004-.01.012-.032.032a10.84 10.84 0 0 1-.448.434c-.296.272-.722.634-1.264 1.03-1.078.785-2.657 1.726-4.63 2.297-1.988.575-4.37.773-6.998.064-2.624-.708-5.374-2.29-8.151-5.087-2.302-2.32-4.618-3.337-6.772-3.645-2.184-.312-4.334.088-6.286.819-1.951.73-3.636 1.766-4.842 2.633-.6.43-1.07.812-1.388 1.082a14.402 14.402 0 0 0-.454.403l.002-.002ZM2.864 39.204s.001-.001-1.326-1.4C.21 36.406.21 36.405.21 36.404l.002-.001.004-.004.011-.011a7.481 7.481 0 0 1 .16-.15c.107-.095.258-.23.45-.394.385-.327.94-.775 1.636-1.276 1.385-.995 3.371-2.225 5.735-3.11 2.364-.885 5.175-1.45 8.163-1.022 3.02.431 6.088 1.858 8.949 4.74 2.386 2.404 4.564 3.582 6.429 4.085a9.024 9.024 0 0 0 4.943-.045c1.43-.415 2.61-1.11 3.44-1.714.41-.3.726-.57.933-.759.103-.094.178-.167.223-.212l.046-.047.004-.004-.002.002-.001.002c-.001 0-.002.001 1.404 1.32 1.406 1.32 1.405 1.32 1.404 1.32l-.002.003-.004.004-.01.012-.032.033-.1.102c-.084.083-.2.197-.349.332-.296.27-.721.634-1.264 1.029-1.078.785-2.656 1.726-4.63 2.297-1.987.576-4.37.773-6.997.064-2.624-.708-5.375-2.289-8.152-5.087-2.302-2.32-4.618-3.337-6.771-3.645-2.184-.312-4.335.089-6.286.82-1.952.73-3.636 1.765-4.842 2.632-.6.43-1.071.812-1.388 1.082a14.377 14.377 0 0 0-.436.386l-.016.015a.01.01 0 0 0-.002.002l.001-.001Z"/><path d="M22.33 45C9.997 45 0 34.926 0 22.5 0 10.073 9.997 0 22.33 0c12.333 0 22.33 10.073 22.33 22.5 0 12.426-9.997 22.5-22.33 22.5Zm0-3.871c10.21 0 18.488-8.34 18.488-18.629 0-10.289-8.277-18.629-18.488-18.629-10.21 0-18.488 8.34-18.488 18.629 0 10.289 8.277 18.629 18.488 18.629Z"/></g></g></svg>