<svg xmlns="http://www.w3.org/2000/svg" width="17" height="17" fill="none"><path fill="#267CFD" d="M13.268.258H6.404c-.329 0-.654.06-.957.182-.304.12-.58.298-.81.521L2.28 3.223a2.379 2.379 0 0 0-.544.778 2.3 2.3 0 0 0-.189.92v9.737c-.007.417.16.82.461 1.12.303.3.716.472 1.15.48h10.11c.435-.008.849-.18 1.15-.48.303-.3.469-.703.462-1.12v-12.8c.007-.417-.16-.82-.461-1.12a1.675 1.675 0 0 0-1.15-.48ZM5.714 2.189v2.069H3.559l2.155-2.069Zm-2.5 12.469v-8.8h2.5c.442 0 .866-.169 1.178-.469.313-.3.488-.707.488-1.131v-2.4l5.833-.018a.04.04 0 0 1 0 .018l.055 12.8H3.214Z"/><path fill="#267CFD" d="M5.714 10.658a.851.851 0 0 0-.59.234.784.784 0 0 0-.244.566v1.6c0 .212.088.415.244.566.157.15.369.234.59.234a.851.851 0 0 0 .589-.235.784.784 0 0 0 .244-.565v-1.6a.784.784 0 0 0-.244-.566.851.851 0 0 0-.59-.234ZM8.214 7.458a.851.851 0 0 0-.59.234.784.784 0 0 0-.244.566v4.8c0 .212.088.415.244.566.157.15.369.234.59.234a.851.851 0 0 0 .589-.235.784.784 0 0 0 .244-.565v-4.8a.784.784 0 0 0-.244-.566.851.851 0 0 0-.59-.234ZM10.713 9.058a.851.851 0 0 0-.589.234.784.784 0 0 0-.244.566v3.2c0 .212.088.415.244.566.156.15.368.234.59.234a.851.851 0 0 0 .589-.235.784.784 0 0 0 .244-.565v-3.2a.784.784 0 0 0-.244-.566.851.851 0 0 0-.59-.234Z"/></svg>