<svg xmlns="http://www.w3.org/2000/svg" width="17" height="17" fill="none"><path fill="#267CFD" d="M16.058 4.398c-.423-1.603-1.665-2.867-3.241-3.296-1.544-.419-3.184.006-4.596 1.17C7.19 1.417 6.049.953 4.883.926a4.534 4.534 0 0 0-3.339 1.36c-1.675 1.703-2.04 4.78.501 7.364l5.608 5.703a.794.794 0 0 0 1.133 0l5.608-5.703c1.527-1.553 2.133-3.467 1.664-5.25ZM13.26 8.497l-5.042 5.127-5.041-5.127c-1.881-1.914-1.579-3.964-.501-5.06.52-.53 1.26-.876 2.098-.876.896 0 1.905.395 2.877 1.384a.79.79 0 0 0 1.133 0c1.865-1.896 3.874-1.579 4.95-.484.58.59.889 1.373.874 2.203-.018.975-.484 1.954-1.348 2.833Z"/></svg>