<svg xmlns="http://www.w3.org/2000/svg" width="150" height="45" fill="none"><g clip-path="url(#a)"><mask id="b" width="97" height="23" x="53" y="11" maskUnits="userSpaceOnUse" style="mask-type:luminance"><path fill="#fff" d="M150 11.904H53.7v21.192H150V11.904Z"/></mask><g mask="url(#b)"><path fill="#001B1F" d="M61.887 18.216c1.146 0 2.166.226 3.061.677.913.45 1.63 1.145 2.148 2.083.52.92.779 2.11.779 3.571v8.279h-3.356V24.98c0-1.28-.305-2.237-.913-2.868-.59-.631-1.423-.947-2.497-.947-.788 0-1.486.163-2.095.487-.608.325-1.083.812-1.422 1.461-.323.631-.484 1.434-.484 2.408v7.305h-3.356V18.379h3.195v3.895l-.564-1.19a5.036 5.036 0 0 1 2.175-2.11c.967-.505 2.076-.758 3.33-.758ZM78.2 33.015c-1.217 0-2.29-.226-3.222-.676a5.027 5.027 0 0 1-2.174-2.11c-.52-.956-.779-2.156-.779-3.599V18.38h3.356v7.791c0 1.299.287 2.273.86 2.922.59.631 1.422.947 2.496.947.788 0 1.468-.162 2.041-.487.59-.325 1.047-.812 1.37-1.46.34-.65.51-1.453.51-2.409V18.38h3.356v14.447h-3.195V28.93l.563 1.19a5.033 5.033 0 0 1-2.12 2.165c-.931.487-1.952.73-3.062.73Zm30.305-14.799c1.145 0 2.157.226 3.034.677.895.45 1.593 1.145 2.094 2.083.501.92.752 2.11.752 3.571v8.279h-3.356V24.98c0-1.28-.278-2.237-.833-2.868-.555-.631-1.351-.947-2.389-.947-.734 0-1.388.163-1.96.487-.555.325-.994.803-1.316 1.434-.304.631-.457 1.434-.457 2.408v7.332h-3.356V24.98c0-1.28-.277-2.237-.832-2.868-.555-.631-1.352-.947-2.39-.947-.734 0-1.387.163-1.96.487-.555.325-.993.803-1.315 1.434-.305.631-.457 1.434-.457 2.408v7.332h-3.356V18.379h3.195v3.841l-.564-1.136a4.912 4.912 0 0 1 2.094-2.137c.931-.487 1.987-.73 3.169-.73 1.342 0 2.506.333 3.49 1 1.003.668 1.665 1.678 1.987 3.03l-1.316-.46c.466-1.082 1.236-1.947 2.31-2.597 1.074-.649 2.318-.974 3.732-.974Zm19.002 14.61v-2.922l-.188-.622v-5.114c0-.992-.295-1.758-.886-2.3-.591-.558-1.486-.838-2.685-.838a7.79 7.79 0 0 0-2.39.379c-.769.252-1.423.604-1.96 1.055l-1.315-2.462c.769-.595 1.682-1.037 2.738-1.326a12.071 12.071 0 0 1 3.33-.46c2.076 0 3.678.505 4.806 1.515 1.145.992 1.718 2.534 1.718 4.627v8.468h-3.168Zm-4.511.189c-1.074 0-2.013-.18-2.819-.541-.805-.379-1.432-.893-1.879-1.542a4.057 4.057 0 0 1-.645-2.246c0-.811.188-1.542.564-2.191.394-.65 1.029-1.163 1.906-1.542s2.041-.568 3.491-.568h4.162v2.245h-3.921c-1.145 0-1.915.19-2.309.568a1.76 1.76 0 0 0-.59 1.353c0 .613.241 1.1.725 1.461.483.36 1.154.541 2.013.541.824 0 1.558-.19 2.202-.568.662-.379 1.137-.938 1.423-1.677l.564 2.029c-.322.847-.904 1.506-1.745 1.975-.824.469-1.871.703-3.142.703Zm11.987-.19V18.38h3.195v3.977l-.376-1.164a4.574 4.574 0 0 1 2.014-2.218c.931-.505 2.085-.758 3.463-.758v3.22a1.647 1.647 0 0 0-.402-.054 2.652 2.652 0 0 0-.376-.027c-1.271 0-2.282.378-3.034 1.136-.752.74-1.128 1.849-1.128 3.328v7.007h-3.356Zm11.143 0V18.38h3.357v14.447h-3.357Zm1.692-16.827c-.627 0-1.146-.198-1.557-.595a1.961 1.961 0 0 1-.591-1.434c0-.577.197-1.055.591-1.434.411-.397.93-.595 1.557-.595.626 0 1.137.19 1.53.568.412.36.618.82.618 1.38 0 .595-.197 1.1-.591 1.515-.394.396-.913.595-1.557.595Z"/></g><mask id="c" width="45" height="45" x="0" y="0" maskUnits="userSpaceOnUse" style="mask-type:luminance"><path fill="#fff" d="M44.66 0H0v45h44.66V0Z"/></mask><g mask="url(#c)"><mask id="d" width="45" height="45" x="0" y="0" maskUnits="userSpaceOnUse" style="mask-type:alpha"><path fill="#D9D9D9" d="M22.33 43.064c11.27 0 20.408-9.206 20.408-20.564S33.601 1.935 22.33 1.935c-11.272 0-20.41 9.207-20.41 20.565s9.138 20.564 20.41 20.564Z"/><path fill="#267CFD" fill-rule="evenodd" d="M0 22.5C0 10.073 9.997 0 22.33 0c12.333 0 22.33 10.073 22.33 22.5 0 12.426-9.997 22.5-22.33 22.5C9.997 45 0 34.926 0 22.5ZM22.33 3.871c-10.21 0-18.488 8.34-18.488 18.629 0 10.289 8.277 18.629 18.488 18.629 10.21 0 18.488-8.34 18.488-18.629 0-10.289-8.277-18.629-18.488-18.629Z" clip-rule="evenodd"/></mask><g fill="#267CFD" fill-rule="evenodd" clip-rule="evenodd" mask="url(#d)"><path d="m3.056 27.687-1.327-1.4C.4 24.89.402 24.89.402 24.889l.002-.002.004-.003.011-.011.037-.035a13.494 13.494 0 0 1 .574-.509c.385-.328.94-.776 1.636-1.276 1.385-.995 3.37-2.225 5.735-3.11 2.364-.885 5.175-1.45 8.163-1.023 3.02.432 6.088 1.858 8.948 4.74 2.386 2.405 4.564 3.582 6.429 4.086a9.023 9.023 0 0 0 4.943-.046c1.431-.414 2.61-1.11 3.44-1.713.411-.3.727-.57.933-.759.103-.094.178-.167.224-.213l.045-.046.004-.004-.002.002-.001.001c0 .001-.001.002 1.404 1.32 1.406 1.32 1.405 1.32 1.404 1.322l-.002.002-.004.004-.01.012-.032.032a10.84 10.84 0 0 1-.448.434c-.296.272-.722.634-1.264 1.03-1.078.785-2.657 1.726-4.63 2.297-1.988.575-4.37.773-6.998.064-2.624-.708-5.374-2.29-8.151-5.087-2.302-2.32-4.618-3.337-6.772-3.645-2.184-.312-4.334.088-6.286.819-1.951.73-3.636 1.766-4.842 2.633-.6.43-1.07.812-1.388 1.082a14.402 14.402 0 0 0-.454.403l.002-.002ZM2.864 39.204s.001-.001-1.326-1.4C.21 36.406.21 36.405.21 36.404l.002-.001.004-.004.011-.011a7.481 7.481 0 0 1 .16-.15c.107-.095.258-.23.45-.394.385-.327.94-.775 1.636-1.276 1.385-.995 3.371-2.225 5.735-3.11 2.364-.885 5.175-1.45 8.163-1.022 3.02.431 6.088 1.858 8.949 4.74 2.386 2.404 4.564 3.582 6.429 4.085a9.024 9.024 0 0 0 4.943-.045c1.43-.415 2.61-1.11 3.44-1.714.41-.3.726-.57.933-.759.103-.094.178-.167.223-.212l.046-.047.004-.004-.002.002-.001.002c-.001 0-.002.001 1.404 1.32 1.406 1.32 1.405 1.32 1.404 1.32l-.002.003-.004.004-.01.012-.032.033-.1.102c-.084.083-.2.197-.349.332-.296.27-.721.634-1.264 1.029-1.078.785-2.656 1.726-4.63 2.297-1.987.576-4.37.773-6.997.064-2.624-.708-5.375-2.289-8.152-5.087-2.302-2.32-4.618-3.337-6.771-3.645-2.184-.312-4.335.089-6.286.82-1.952.73-3.636 1.765-4.842 2.632-.6.43-1.071.812-1.388 1.082a14.377 14.377 0 0 0-.436.386l-.016.015a.01.01 0 0 0-.002.002l.001-.001Z"/><path d="M22.33 45C9.997 45 0 34.926 0 22.5 0 10.073 9.997 0 22.33 0c12.333 0 22.33 10.073 22.33 22.5 0 12.426-9.997 22.5-22.33 22.5Zm0-3.871c10.21 0 18.488-8.34 18.488-18.629 0-10.289-8.277-18.629-18.488-18.629-10.21 0-18.488 8.34-18.488 18.629 0 10.289 8.277 18.629 18.488 18.629Z"/></g></g></g><defs><clipPath id="a"><path fill="#fff" d="M0 0h150v45H0z"/></clipPath></defs></svg>