<svg xmlns="http://www.w3.org/2000/svg" width="17" height="17" fill="none"><path stroke="#267CFD" d="M15.5 3.469 3.62 15.151a.304.304 0 0 1-.216.087.304.304 0 0 1-.215-.087L.927 12.926a.277.277 0 0 1 0-.4L12.807.846a.309.309 0 0 1 .43 0l2.262 2.225a.277.277 0 0 1 0 .399ZM3.054 14.195l.35.345.35-.345 7.984-7.85.362-.356-.362-.357-1.131-1.112-.35-.345-.351.345-7.984 7.85-.362.357.362.356 1.132 1.112Zm9.115-8.963.35.345.35-.345 1.635-1.606.362-.357-.362-.356L13.372 1.8l-.35-.344-.35.344-1.635 1.607-.362.356.362.357 1.132 1.112Zm-.456 7.88v.5h1.3c.174 0 .3.135.3.286a.293.293 0 0 1-.3.287h-1.3v1.286c0 .151-.126.287-.3.287a.293.293 0 0 1-.3-.287v-1.287h-1.3a.293.293 0 0 1-.3-.286c0-.151.126-.287.3-.287h1.3v-1.287c0-.15.126-.286.3-.286s.3.136.3.287v.786Zm-9.4-6.294v-.5h-1.3a.293.293 0 0 1-.3-.287c0-.15.126-.286.3-.286h1.3V4.458c0-.151.126-.287.3-.287s.3.136.3.287v1.287h1.3c.174 0 .3.135.3.286a.293.293 0 0 1-.3.287h-1.3v1.287a.293.293 0 0 1-.3.286.293.293 0 0 1-.3-.286v-.787Zm10.4 3.433v-.573h.6v.573h-.6Zm-4.8-8.653v-.573h.6v.573h-.6Zm-2.4 1.573v-.573h.6v.573h-.6Zm-2.4-2.146h.6v.573h-.6v-.573Zm12 6.866v-.573h.6v.573h-.6Zm0 3.934v-.574h.6v.574h-.6Z"/></svg>